<svg width="750" height="435" viewBox="0 0 750 435" fill="none" xmlns="http://www.w3.org/2000/svg">
<g clip-path="url(#clip0_531_13876)">
<path d="M451.725 49.2675C448.325 50.2056 445.485 52.2651 443.415 54.9823V54.9607C439.695 58.1415 437.575 57.8073 436.665 57.3544L428.735 24.0364C428.135 21.5133 425.745 19.9821 423.405 20.6399L337.525 44.4154C335.185 45.0623 333.765 47.6394 334.375 50.1625L342.355 83.6854C340.215 86.3595 335.345 84.548 335.345 84.548C332.435 83.4158 329.205 83.1894 325.985 84.0736C317.455 86.4349 312.315 95.805 314.505 105.002C316.695 114.2 325.385 119.742 333.915 117.381C337.315 116.443 340.155 114.383 342.225 111.666V111.688C345.305 109.057 347.285 108.841 348.395 109.089L356.405 142.752C357.005 145.275 359.395 146.806 361.735 146.149L447.615 122.373C449.955 121.726 451.375 119.149 450.765 116.626L442.895 83.556C444.755 80.0409 450.295 82.1003 450.295 82.1003C453.205 83.2325 456.435 83.4589 459.655 82.5748C468.185 80.2134 473.325 70.8434 471.135 61.6459C468.945 52.4484 460.255 46.9061 451.725 49.2675Z" fill="#BFBFBF"/>
<path d="M342.234 43.1C341.724 43.2402 344.004 57.5809 361.644 60.3844C379.284 63.1879 421.504 92.4409 416.004 131.129C416.004 131.129 428.214 127.743 427.674 127.894C427.134 128.045 427.184 77.4747 380.724 62.8752C334.264 48.2756 372.734 34.6465 372.734 34.6465L342.234 43.0892V43.1Z" fill="#E6E6E6"/>
<path d="M550.21 275.15C552.72 278.417 556.02 280.541 559.56 281.511H559.55C564.31 284.067 565.01 286.547 565.03 287.754L537.49 312.371C535.4 314.236 535.11 317.579 536.84 319.832L600.28 402.351C602.01 404.605 605.11 404.917 607.2 403.052L634.91 378.285C638.45 379.352 639.07 385.531 639.07 385.531C639.4 389.24 640.73 392.895 643.1 395.99C649.4 404.184 660.67 405.327 668.27 398.523C675.87 391.73 676.93 379.579 670.62 371.384C668.11 368.117 664.81 365.993 661.27 365.022H661.28C657.34 362.909 656.18 360.849 655.89 359.512L683.71 334.648C685.8 332.782 686.09 329.44 684.36 327.186L630.18 256.712L620.92 244.657C619.19 242.403 616.09 242.09 614 243.956L586.67 268.389C582.47 268.033 581.76 261.003 581.76 261.003C581.43 257.294 580.1 253.638 577.73 250.544C571.43 242.349 560.16 241.206 552.56 248.01C544.96 254.803 543.9 266.955 550.21 275.15Z" fill="#BFBFBF"/>
<path d="M205.261 389.789C207.561 389.304 209.531 388.042 211.011 386.317C213.771 384.225 215.191 384.721 215.711 385.077L219.821 407.559C220.131 409.273 221.671 410.384 223.261 410.049L281.431 397.671C283.021 397.337 284.051 395.676 283.741 393.962L279.631 371.513C279.151 371.157 277.731 370.575 274.891 372.742C273.411 374.456 271.441 375.718 269.141 376.203C263.361 377.432 257.751 373.378 256.611 367.146C255.471 360.913 259.231 354.864 265.011 353.635C267.191 353.171 269.341 353.463 271.241 354.336C271.241 354.336 275.051 356.007 276.331 353.463L272.261 331.229C271.951 329.515 270.411 328.404 268.821 328.738L243.711 334.076C241.331 332.706 242.901 328.577 242.901 328.577C243.711 326.528 243.981 324.21 243.551 321.859C242.411 315.627 236.801 311.572 231.021 312.802C225.241 314.031 221.481 320.08 222.621 326.312C223.071 328.792 224.241 330.927 225.831 332.512C227.861 335.618 227.281 337.149 226.961 337.645L210.651 341.117C209.061 341.451 208.031 343.111 208.341 344.826L212.421 367.103C211.121 369.572 207.361 367.922 207.361 367.922C205.461 367.049 203.311 366.758 201.131 367.221C195.351 368.45 191.591 374.499 192.731 380.732C193.871 386.964 199.481 391.018 205.261 389.789Z" fill="#BFBFBF"/>
<path d="M248.74 333.008C248.74 333.008 250.37 347.22 242.96 357.582C235.55 367.944 221.3 399.989 226.02 409.446L232.19 408.13C232.19 408.13 225.54 399.903 234.75 380.031C243.96 360.159 257.3 350.994 255.44 331.574L248.74 332.997V333.008Z" fill="#E6E6E6"/>
<path d="M704.969 118.975C703.589 117.875 701.969 117.336 700.369 117.325C697.939 116.743 697.489 115.664 697.409 115.19L706.699 101.658C707.409 100.623 707.209 99.1778 706.249 98.4122L671.239 70.4747C670.279 69.7091 668.939 69.9248 668.229 70.9599L658.959 84.4704C659.019 84.9233 659.429 86.0447 661.919 86.6377C663.519 86.6593 665.129 87.1876 666.519 88.2982C669.999 91.0693 670.729 96.3636 668.159 100.116C665.589 103.868 660.679 104.655 657.199 101.884C655.889 100.838 654.969 99.4366 654.469 97.8947C654.469 97.8947 653.429 94.8324 651.519 95.35L642.339 108.731C641.629 109.766 641.829 111.211 642.789 111.977L657.899 124.032C658.389 126.102 655.529 127.223 655.529 127.223C654.099 127.762 652.799 128.754 651.829 130.167C649.259 133.919 649.989 139.203 653.469 141.984C656.949 144.756 661.849 143.968 664.429 140.216C665.449 138.728 665.949 136.992 665.969 135.267C666.529 132.539 667.589 132.129 667.999 132.065L677.819 139.893C678.779 140.658 680.119 140.443 680.829 139.407L690.029 125.994C691.919 125.53 692.949 128.549 692.949 128.549C693.449 130.091 694.369 131.493 695.679 132.539C699.159 135.31 704.059 134.523 706.639 130.771C709.209 127.018 708.479 121.735 704.999 118.953L704.969 118.975Z" fill="#BFBFBF"/>
<path d="M650.789 118.349C650.789 118.349 676.759 121.638 680.049 110.542C683.339 99.447 670.029 95.7918 682.449 79.4131L685.959 82.2165C685.959 82.2165 678.809 80.7933 680.049 91.8993C681.289 102.995 688.079 108.515 682.109 115.966C676.139 123.417 657.889 124.02 657.889 124.02L650.789 118.36V118.349Z" fill="#E6E6E6"/>
<path d="M216.634 164.61C214.534 161.872 211.764 160.082 208.794 159.262H208.804C204.534 156.976 204.154 154.755 204.214 153.828L227.254 133.266C229.004 131.702 229.254 128.899 227.804 127.001L174.594 57.6799C173.144 55.793 170.544 55.5234 168.784 57.0869L145.774 77.6168C145.694 78.4902 145.974 80.7761 150.364 83.1159H150.354C153.324 83.9462 156.094 85.7253 158.194 88.4749C163.484 95.3649 162.584 105.565 156.204 111.258C149.824 116.952 140.354 115.992 135.074 109.113C133.084 106.514 131.964 103.452 131.694 100.325C131.694 100.325 131.064 94.1141 127.284 94.1141L104.494 114.472C102.744 116.035 102.494 118.838 103.944 120.736L126.914 150.658C126.944 154.755 121.144 155.424 121.144 155.424C118.254 155.715 115.404 156.922 112.994 159.068C106.604 164.772 105.714 174.972 111.004 181.852C116.294 188.742 125.754 189.701 132.134 183.997C134.674 181.733 136.344 178.746 137.104 175.555C139.304 170.767 141.444 170.508 142.234 170.616L157.154 190.046C158.604 191.933 161.204 192.203 162.964 190.639L185.794 170.26C189.504 170.336 190.124 176.471 190.124 176.471C190.394 179.587 191.514 182.66 193.504 185.259C198.794 192.149 208.254 193.109 214.634 187.405C221.024 181.701 221.914 171.5 216.624 164.621L216.634 164.61Z" fill="#BFBFBF"/>
<path d="M157.373 67.2764C157.373 67.2764 184.473 83.558 184.453 98.7291C184.443 113.9 144.033 159.359 162.963 190.639L171.583 183.124C171.583 183.124 158.763 181 163.933 160.319C169.103 139.638 191.523 103.333 189.983 89.5316C188.443 75.7407 168.773 57.0869 168.773 57.0869L157.363 67.2656L157.373 67.2764Z" fill="#E6E6E6"/>
<path d="M457.91 391.331C456.62 390.296 455.12 389.811 453.62 389.789C451.36 389.239 450.93 388.236 450.86 387.794L459.52 375.168C460.18 374.208 459.99 372.85 459.1 372.138L426.44 346.077C425.55 345.365 424.29 345.57 423.63 346.53L414.98 359.134C415.04 359.555 415.42 360.601 417.74 361.162C419.23 361.183 420.73 361.679 422.03 362.703C425.27 365.291 425.96 370.23 423.56 373.723C421.16 377.217 416.58 377.961 413.34 375.373C412.12 374.392 411.26 373.087 410.79 371.642C410.79 371.642 409.82 368.785 408.03 369.27L399.46 381.756C398.8 382.716 398.99 384.074 399.88 384.786L413.98 396.032C414.44 397.962 411.77 399.019 411.77 399.019C410.43 399.526 409.22 400.453 408.31 401.769C405.91 405.262 406.59 410.201 409.84 412.788C413.08 415.376 417.66 414.643 420.06 411.139C421.01 409.748 421.48 408.13 421.49 406.524C422.01 403.979 423 403.591 423.38 403.537L432.54 410.847C433.43 411.559 434.69 411.354 435.35 410.395L443.93 397.887C445.69 397.456 446.65 400.27 446.65 400.27C447.12 401.704 447.98 403.019 449.2 403.99C452.44 406.578 457.02 405.844 459.42 402.34C461.82 398.847 461.14 393.908 457.89 391.32L457.91 391.331Z" fill="#BFBFBF"/>
<path d="M402.89 387.169C402.89 387.169 403.43 380.797 417.04 383.503C430.65 386.21 443.46 383.223 444.39 377.088C445.31 370.963 438.58 355.76 438.58 355.76L449.9 364.796C449.9 364.796 454.83 376.096 447.43 381.649C440.03 387.202 420.48 384.29 414.4 387.169C408.32 390.048 410.29 393.067 410.29 393.067L402.25 387.482" fill="#E6E6E6"/>
</g>
<g clip-path="url(#clip1_531_13876)">
<path d="M658.25 160.261H534.23C530.85 160.261 528.1 163.215 528.1 166.87V214.723C528.95 215.651 531.64 217.473 538.29 214.271V214.292C541.97 211.402 546.49 209.677 551.4 209.677C563.72 209.677 573.7 220.449 573.7 233.722C573.7 246.996 563.71 257.767 551.4 257.767C546.75 257.767 542.44 256.236 538.87 253.616C538.87 253.616 531.68 248.516 528.1 253.185V300.585C528.1 304.229 530.84 307.194 534.23 307.194H658.25C661.63 307.194 664.38 304.24 664.38 300.585V166.86C664.38 163.215 661.64 160.25 658.25 160.25V160.261Z" fill="#60C4F0"/>
<path opacity="0.4" d="M658.25 160.261H534.23C530.85 160.261 528.1 163.215 528.1 166.87V214.723C528.95 215.651 531.64 217.473 538.29 214.271V214.292C541.97 211.402 546.49 209.677 551.4 209.677C563.72 209.677 573.7 220.449 573.7 233.722C573.7 246.996 563.71 257.767 551.4 257.767C546.75 257.767 542.44 256.236 538.87 253.616C538.87 253.616 531.68 248.516 528.1 253.185V300.585C528.1 304.229 530.84 307.194 534.23 307.194H658.25C661.63 307.194 664.38 304.24 664.38 300.585V166.86C664.38 163.215 661.64 160.25 658.25 160.25V160.261Z" fill="#60C4F0"/>
<path opacity="0.4" d="M616.951 307.205L615.121 283.904C614.371 275.795 613.051 270.523 618.131 270.922C623.211 271.321 627.541 277.413 629.421 285.122L631.701 307.205" fill="black"/>
<path opacity="0.4" d="M639.101 307.206C638.851 300.564 639.961 265.035 639.961 265.035C639.961 256.312 635.631 231.167 636.571 218.994C637.511 206.82 640.521 200.534 644.851 200.944C649.181 201.353 651.061 211.079 651.061 211.079C651.061 211.079 653.691 210.271 655.951 215.338C658.211 220.406 663.101 232.979 663.101 232.979C663.101 232.979 670.881 270.761 669.981 307.195H639.111L639.101 307.206Z" fill="black"/>
<path d="M659.778 430.558C659.778 430.558 656.508 376.99 650.198 372.958C649.098 372.257 629.798 354.067 624.348 334.593C618.898 315.12 621.148 292.002 620.398 283.883C619.648 275.764 618.328 270.502 623.408 270.901C628.488 271.3 632.818 277.392 634.698 285.101C636.578 292.811 635.258 309.847 637.708 313.093C640.158 316.338 641.848 314.311 641.848 313.697C641.848 313.082 645.238 273.737 645.238 265.024C645.238 256.312 640.908 231.156 641.848 218.983C642.788 206.809 645.798 200.523 650.128 200.933C654.458 201.343 656.338 211.068 656.338 211.068C656.338 211.068 658.968 210.26 661.228 215.328C663.488 220.395 668.378 232.968 668.378 232.968C668.378 232.968 668.938 223.231 672.888 222.832C676.838 222.422 678.908 227.296 680.408 233.173C681.908 239.049 684.358 248.182 685.678 255.277C686.998 262.372 688.308 273.941 688.308 273.941C688.308 273.941 689.628 254.673 690.938 251.428C692.258 248.182 696.958 245.346 698.278 248.182C699.598 251.018 696.958 283.268 696.958 289.35C696.958 295.431 690.938 342.486 693.198 353.031C695.458 363.577 717.078 430.536 717.078 430.536H659.788L659.778 430.558Z" fill="#B97964"/>
<path d="M663.878 285.231C664.558 274.847 665.228 264.377 663.958 254.015C662.838 244.925 660.468 236.062 658.928 227.059C657.978 221.527 657.338 215.953 657.118 210.335C657.078 209.3 655.578 209.289 655.618 210.335C655.988 219.705 657.628 228.859 659.508 238.003C660.438 242.532 661.398 247.071 662.118 251.643C662.938 256.829 663.198 262.102 663.178 267.353C663.158 273.316 662.768 279.279 662.378 285.231C662.308 286.266 663.808 286.266 663.878 285.231Z" fill="#942E38"/>
<path d="M667.959 232.601C670.789 239.114 673.599 245.842 675.409 252.775C676.269 256.075 676.309 259.439 676.379 262.846C676.469 267.483 676.449 272.13 676.419 276.766C676.399 279.592 676.369 282.406 676.319 285.231C676.299 286.277 677.799 286.277 677.819 285.231C677.949 278.157 678.009 271.073 677.909 263.989C677.859 260.528 677.929 256.937 677.169 253.562C676.169 249.131 674.509 244.839 672.889 240.634C671.739 237.658 670.539 234.704 669.269 231.782C668.859 230.844 667.569 231.663 667.969 232.601H667.959Z" fill="#942E38"/>
<path d="M687.668 271.203C687.118 277.921 687.598 284.714 687.608 291.442C687.608 292.488 689.108 292.488 689.108 291.442C689.108 284.714 688.618 277.921 689.168 271.203C689.258 270.168 687.748 270.168 687.668 271.203Z" fill="#942E38"/>
<path opacity="0.2" d="M553.049 160.196C553.049 160.196 553.499 192.037 579.829 203.294C606.149 214.551 602.069 234.121 595.259 250.274C588.449 266.426 545.789 307.173 547.609 307.173H573.949C573.949 307.173 571.209 294.072 591.169 267.774C611.139 241.475 617.629 219.942 606.669 207.704C595.709 195.466 563.939 190.571 574.829 160.229H550.319" fill="#E6E6E6"/>
<path d="M538.02 209.57C533.12 209.57 528.6 211.295 524.91 214.185V214.163C518.45 217.268 515.72 215.64 514.79 214.691V166.763C514.79 163.119 512.05 160.153 508.66 160.153H384.64C381.26 160.153 378.51 163.108 378.51 166.763V214.616C379.36 215.543 382.05 217.365 388.7 214.163V214.185C392.38 211.295 396.9 209.57 401.81 209.57C414.13 209.57 424.11 220.341 424.11 233.615C424.11 246.888 414.12 257.66 401.81 257.66C397.16 257.66 392.85 256.129 389.28 253.509C389.28 253.509 382.09 248.408 378.51 253.077V300.477C378.51 304.122 381.25 307.087 384.64 307.087H438.18C442.56 310.936 437.77 318.732 437.77 318.732C435.34 322.582 433.92 327.229 433.92 332.243C433.92 345.527 443.91 356.288 456.22 356.288C468.53 356.288 478.52 345.516 478.52 332.243C478.52 326.959 476.94 322.075 474.26 318.107C471.26 310.85 473.02 307.971 473.88 307.087H508.65C512.03 307.087 514.78 304.133 514.78 300.477V252.98C518.38 248.473 525.48 253.519 525.48 253.519C529.05 256.139 533.36 257.671 538.01 257.671C550.33 257.671 560.31 246.899 560.31 233.626C560.31 220.352 550.32 209.58 538.01 209.58L538.02 209.57Z" fill="#4008E2"/>
<path opacity="0.2" d="M402.43 306.807C402.43 306.807 406.82 281.748 444.35 258.35C481.87 234.952 441.02 160.164 441.02 160.164H452.34C452.34 160.164 479.17 190.118 477.89 233.496C476.49 280.95 435.4 257.218 422.91 280.95C410.42 304.682 420 306.828 420 306.828L402.44 306.796L402.43 306.807Z" fill="#E6E6E6"/>
<path opacity="0.2" d="M483.34 306.839C483.34 306.839 483.34 293.253 497.94 279.99C512.54 266.728 514.79 265.596 514.79 265.596V276.26C514.79 276.26 499.09 282.621 496.4 291.247C493.71 299.873 499.06 306.828 499.06 306.828H483.33L483.34 306.839Z" fill="#E6E6E6"/>
<path opacity="0.4" d="M393.69 192.404C393.69 192.404 399.13 197.321 403.61 191.919C403.61 191.919 415.41 201.256 422.55 197.386C422.55 197.386 436.74 201.882 442.34 196.113L444.44 191.919C444.44 191.919 453.46 193.234 455.48 184.242C456.61 179.217 451.08 170.591 447.74 167.033C447.74 167.033 449.99 161.437 449.68 161.437C448.98 161.437 391.93 162.17 391.93 162.17L393.68 192.415L393.69 192.404Z" fill="black"/>
<path d="M476.79 110.467C475.32 111.265 420.38 102.833 410.06 108.397C399.74 113.961 382.2 144.486 381.84 154.018C381.47 163.55 390.17 190.236 390.54 191.821C390.91 193.406 398.17 193.611 400.12 183.077C400.49 181.093 400.86 175.529 400.86 175.529C400.86 175.529 413.76 202.151 425.91 190.226C425.91 190.226 431.79 197.558 436.4 193.299C441.01 189.039 439.91 187.045 439.91 187.045C439.91 187.045 448.75 189.827 449.12 181.88C449.49 173.933 443.22 167.97 443.22 167.97L449.85 157.242C449.85 157.242 484.67 163.862 494.06 156.843C500.97 151.678 501.06 148.896 501.06 148.896L574.02 0H512.88L476.8 110.467H476.79Z" fill="#FCC8CD"/>
<path d="M439.73 186.042C437.01 184.176 434.26 182.279 431.98 179.809C429.7 177.34 426.21 171.528 425.84 168.078C425.18 161.921 432 152.519 434.64 148.012" stroke="#F64C5D" stroke-linecap="round" stroke-linejoin="round"/>
<path d="M427.57 191.918C423.84 188.662 421.85 186.247 418.43 181.869C416.31 179.163 413.93 175.604 412.02 172.186C409.69 168.014 408.31 163.215 410.09 158.741C411.87 154.266 421.09 136.744 421.09 136.744" stroke="#F64C5D" stroke-linecap="round" stroke-linejoin="round"/>
<path d="M406.251 184.241C402.181 179.044 398.031 169.717 395.901 162.568C394.411 157.544 403.541 138.976 407.671 131.536" stroke="#F64C5D" stroke-linecap="round" stroke-linejoin="round"/>
<path d="M449.689 158.007C452.129 156.228 454.139 153.78 455.489 150.955" stroke="#F64C5D" stroke-linecap="round" stroke-linejoin="round"/>
<path d="M221.95 214.196V166.796C221.95 163.151 219.21 160.186 215.82 160.186H168.16C165.17 156.153 169.33 149.36 169.33 149.36C171.76 145.511 173.18 140.864 173.18 135.85C173.18 122.566 163.19 111.805 150.88 111.805C138.57 111.805 128.58 122.576 128.58 135.85C128.58 141.133 130.16 146.018 132.84 149.986C135.22 155.733 134.6 158.741 133.82 160.186H91.8097C88.4297 160.186 85.6797 163.14 85.6797 166.796V300.521C85.6797 304.165 88.4197 307.13 91.8097 307.13H215.83C219.21 307.13 221.96 304.176 221.96 300.521V252.668C221.11 251.741 218.42 249.918 211.77 253.121V253.099C208.09 255.989 203.57 257.725 198.66 257.725C186.34 257.725 176.36 246.953 176.36 233.68C176.36 220.406 186.35 209.635 198.66 209.635C203.31 209.635 207.62 211.166 211.19 213.786C211.19 213.786 218.38 218.886 221.96 214.217L221.95 214.196Z" fill="#16034F"/>
<path opacity="0.2" d="M179.951 160.186C179.951 160.186 186.701 173.179 171.321 184.533C155.941 195.876 138.131 222.067 134.621 239.815C131.111 257.563 85.7812 261.638 85.7812 261.638V291.549C85.7812 291.549 131.111 285.328 139.751 262.868C148.381 240.408 149.581 218.293 163.961 202.874C178.341 187.455 207.751 160.196 207.751 160.196H179.961" fill="#E6E6E6"/>
<path opacity="0.4" d="M87.0599 206.378C87.0599 206.378 91.5999 206.119 93.2899 214.195C94.9799 222.271 85.6699 249.616 85.6699 249.616V224.773L87.0599 206.378Z" fill="black"/>
<path opacity="0.4" d="M112.02 259.698C112.02 259.698 120.48 260.291 123.2 269.715L124.12 274.061C124.12 274.061 132.69 280.444 130.17 292.391C129.59 295.13 126.52 300.046 126.52 300.046L129.68 307.131L113.66 306.861L107.65 272.422L112.02 259.709V259.698Z" fill="black"/>
<path d="M65.2691 335.146L64.9186 334.955L65.33 334.928V334.907L65.2162 334.878C65.3258 334.863 65.3257 334.863 65.3257 334.863L65.3254 334.861L65.3243 334.852L65.3199 334.818L65.3023 334.684L65.2338 334.157C65.1738 333.695 65.0856 333.015 64.973 332.145C64.7477 330.403 64.4249 327.899 64.0346 324.845C63.2538 318.736 62.203 310.431 61.1225 301.642C58.9604 284.055 56.6829 264.56 56.2091 256.843L56.209 256.842C55.9767 253.097 57.3899 248.039 59.7509 242.489C62.1042 236.956 65.369 231.002 68.7693 225.488C72.1689 219.975 75.6971 214.913 78.5715 211.169C80.0092 209.296 81.2789 207.758 82.2841 206.66C82.7872 206.11 83.218 205.678 83.5662 205.37C83.9343 205.045 84.1543 204.91 84.2443 204.881C85.5837 204.446 87.2874 204.998 88.5493 206.719C89.8061 208.433 90.5964 211.297 89.9758 215.328C89.6647 217.332 88.725 220.223 87.47 223.462C86.2189 226.691 84.6686 230.231 83.1558 233.518C81.6434 236.805 80.1706 239.834 79.0758 242.043C78.5284 243.147 78.0757 244.045 77.7599 244.668C77.602 244.979 77.4784 245.221 77.3943 245.385L77.2984 245.572L77.2739 245.619L77.2678 245.631L77.2663 245.634L77.2659 245.635C77.2659 245.635 77.2658 245.635 77.71 245.864L77.2658 245.635L77.1937 245.774L77.2143 245.93L79.1243 260.368L79.2204 261.094L79.8618 260.74L79.8619 260.74L79.862 260.74L79.8633 260.739L79.8695 260.736L79.8958 260.721C79.9196 260.708 79.9556 260.689 80.0035 260.664C80.0993 260.613 80.2423 260.538 80.4291 260.444C80.8028 260.256 81.3512 259.989 82.0459 259.678C83.4358 259.056 85.408 258.258 87.7345 257.555C92.3998 256.147 98.4311 255.143 104.04 256.655C109.702 258.181 113.166 260.62 115.112 263.582C117.059 266.546 117.535 270.111 117.064 273.99L117.034 274.236L117.212 274.409L117.212 274.409L117.212 274.409L117.212 274.409L117.215 274.412L117.227 274.424C117.239 274.435 117.256 274.452 117.278 274.474C117.323 274.519 117.39 274.587 117.475 274.675C117.646 274.852 117.892 275.113 118.189 275.446C118.782 276.113 119.577 277.065 120.381 278.206C122.001 280.505 123.608 283.504 123.761 286.454C123.916 289.458 123.219 292.136 122.478 294.069C122.108 295.034 121.729 295.81 121.443 296.342C121.3 296.608 121.181 296.812 121.098 296.949C121.057 297.018 121.025 297.069 121.003 297.103L120.98 297.14L120.974 297.149L120.973 297.15L120.973 297.15L120.973 297.15L120.849 297.337L120.907 297.554L120.907 297.555L120.907 297.556L120.908 297.56L120.913 297.58L120.933 297.658C120.951 297.728 120.977 297.832 121.009 297.965C121.074 298.232 121.163 298.618 121.264 299.094C121.467 300.046 121.713 301.354 121.89 302.776C122.067 304.2 122.174 305.727 122.101 307.121C122.028 308.528 121.776 309.743 121.279 310.586C120.785 311.426 119.597 312.447 117.999 313.527C116.422 314.592 114.518 315.667 112.672 316.63C110.829 317.592 109.053 318.437 107.738 319.042C107.081 319.344 106.539 319.586 106.162 319.753C105.973 319.836 105.826 319.9 105.726 319.943L105.612 319.992L105.583 320.005L105.576 320.008L105.574 320.009L105.574 320.009L105.77 320.469L105.574 320.009L105.205 320.166L105.278 320.56L105.279 320.561L105.279 320.564L105.282 320.578L105.292 320.633C105.296 320.66 105.302 320.694 105.309 320.734C105.315 320.769 105.322 320.809 105.33 320.855C105.363 321.05 105.41 321.338 105.465 321.709C105.577 322.451 105.722 323.523 105.857 324.838C106.128 327.471 106.359 331.071 106.202 334.95C106.045 338.831 105.5 342.973 104.229 346.695C102.959 350.418 100.974 353.691 97.9561 355.884L97.8101 355.99L97.7655 356.165L98.25 356.288C97.7655 356.165 97.7654 356.165 97.7653 356.166L97.7646 356.168L97.7621 356.178L97.7518 356.219L97.7111 356.378L97.5527 357L96.9516 359.359C96.434 361.391 95.695 364.295 94.8095 367.779C93.0385 374.747 90.6815 384.036 88.3377 393.324C85.9939 402.611 83.663 411.897 81.9443 418.857C81.085 422.336 80.3783 425.236 79.8994 427.264C79.6601 428.277 79.477 429.076 79.3601 429.621C79.3251 429.784 79.2956 429.927 79.2721 430.048H19.7907L19.8602 429.901L21.0173 427.462C22.0155 425.358 23.4442 422.347 25.1666 418.716C28.6114 411.454 33.2311 401.714 37.9305 391.802C47.3284 371.98 57.0474 351.466 58.3236 348.714C59.5933 345.976 61.3287 342.585 62.7491 339.875C63.4588 338.521 64.089 337.338 64.5417 336.494C64.7681 336.072 64.95 335.735 65.0753 335.503L65.2193 335.237L65.2565 335.169L65.266 335.151L65.2683 335.147L65.2689 335.146L65.2691 335.146ZM79.778 430.067C79.7596 430.159 79.7445 430.238 79.7328 430.303L79.7109 430.058C79.7324 430.06 79.7551 430.063 79.778 430.067Z" fill="#FEE4E7" stroke="#FCC8CD"/>
<g opacity="0.2">
<path d="M106.488 309.824L106.488 309.826C106.546 310.025 106.605 310.222 106.663 310.418C107.016 311.609 107.35 312.737 107.399 313.912C107.463 315.511 106.987 317.058 106.362 318.599L103.474 304.197C104.182 304.587 104.791 305.288 105.226 306.114C105.714 307.038 105.999 308.065 106.298 309.147C106.36 309.37 106.423 309.596 106.488 309.824Z" fill="black" stroke="#FCC8CD"/>
</g>
<path d="M106.19 323.833C105.26 317.902 104.32 311.972 103.39 306.031C103.3 305.438 103.2 304.834 102.9 304.338C102.6 303.842 102.03 303.465 101.5 303.605" stroke="#FCC8CD" stroke-linecap="round" stroke-linejoin="round"/>
<path d="M84.1699 272.993C95.9399 265.175 110.22 265.251 117.56 274.06" stroke="#FCC8CD" stroke-linecap="round" stroke-linejoin="round"/>
<path d="M121.39 297.437C119.49 292.391 117.83 288.002 113.03 286.32C108.23 284.638 99.9404 286.256 95.6504 289.135" stroke="#FCC8CD" stroke-linecap="round" stroke-linejoin="round"/>
<path d="M104.35 308.662C106.35 306.656 108.96 305.373 111.68 305.061" stroke="#FCC8CD" stroke-linecap="round" stroke-linejoin="round"/>
<path d="M76.6289 262.858C81.9389 257.833 93.3289 255.892 97.4989 255.418" stroke="#FCC8CD" stroke-linecap="round" stroke-linejoin="round"/>
<path opacity="0.2" d="M193.289 257.023C193.289 257.023 156.989 287.053 158.829 307.119H178.769C178.769 307.119 162.509 306.149 170.789 291.538C179.069 276.917 200.849 256.97 200.869 257.584C200.869 257.746 194.509 257.304 193.289 257.023Z" fill="#E6E6E6"/>
<path d="M290.48 312.618C290.48 312.618 297.18 302.914 308.1 298.018C319.02 293.112 321.82 293.943 323.41 297.199C325.01 300.455 317.56 310.645 314.36 313.47C311.16 316.295 291.32 330.7 291.32 330.7L290.48 312.629V312.618Z" fill="#E97F3F"/>
<path d="M394.752 209.602C389.852 209.602 385.332 211.327 381.642 214.228V214.206C375.592 217.117 372.822 215.867 371.732 214.918V166.795C371.732 163.151 368.992 160.186 365.602 160.186H241.582C238.202 160.186 235.452 163.14 235.452 166.795V215.209C231.682 218.023 225.682 213.753 225.682 213.753C222.112 211.133 217.802 209.602 213.152 209.602C200.832 209.602 190.852 220.374 190.852 233.647C190.852 246.92 200.842 257.692 213.152 257.692C218.052 257.692 222.572 255.967 226.262 253.066V253.088C231.272 250.673 234.032 251.125 235.452 251.891V300.499C235.452 304.143 238.192 307.108 241.582 307.108H365.602C368.982 307.108 371.732 304.154 371.732 300.499V252.743C375.392 248.678 382.222 253.541 382.222 253.541C385.792 256.161 390.102 257.692 394.752 257.692C407.072 257.692 417.052 246.92 417.052 233.647C417.052 220.374 407.062 209.602 394.752 209.602Z" fill="#F64C5D"/>
<path opacity="0.4" d="M252.131 303.011C252.131 303.011 270.861 299.399 279.851 298.623H283.421C283.421 298.623 285.141 268.194 299.561 267.051L294.351 310.645L310.631 307.119C310.631 307.119 316.081 272.173 328.191 267.72L332.941 279.139C332.941 279.139 340.571 265.854 352.171 265.876L338.891 308.219L307.411 322.668L279.841 320.748L252.121 303.011H252.131Z" fill="black"/>
<path opacity="0.2" d="M352.701 160.153C353.321 160.973 353.441 162.105 353.481 163.172C353.801 171.896 350.561 180.705 344.781 186.819C334.451 197.741 318.401 198.917 305.691 206.367C294.571 212.891 286.141 224.525 282.971 237.734C281.941 242.025 281.431 246.489 279.781 250.543C276.461 258.727 268.861 264.151 260.891 266.577C252.921 269.003 243.731 267.892 235.451 267.72V282.072C243.731 282.244 256.001 278.405 263.971 275.979C271.941 273.553 279.541 268.13 282.861 259.946C284.511 255.891 285.021 251.417 286.051 247.136C289.221 233.927 294.191 220.988 305.311 214.465C318.021 207.014 337.531 207.144 347.861 196.221C353.641 190.107 366.431 168.941 366.111 160.218L352.701 160.164V160.153Z" fill="#E6E6E6"/>
<path d="M242.031 434.526C242.151 431.722 260.221 349.581 260.221 349.581C270.421 339.089 289.951 340.114 299.071 338.712C320.771 335.38 320.361 328.49 320.361 328.49C320.361 328.49 332.501 329.536 337.821 321.223C340.571 316.92 358.371 265.962 358.371 265.962C358.371 265.962 355.031 261.671 346.751 270.243C338.471 278.826 332.801 299.679 332.801 299.679C332.801 299.679 338.811 270.965 338.921 265.887C339.031 260.808 329.741 262.307 326.791 270.599C323.841 278.89 314.001 305.782 314.001 305.782C311.391 310.268 308.191 313.298 303.981 313.826C303.981 313.826 307.461 272.259 307.451 267.72C307.441 263.18 299.381 263.87 295.941 272.033C292.501 280.195 287.811 302.752 287.811 302.752C287.811 302.752 249.621 300.704 243.051 305.243C230.411 313.988 188.211 434.526 188.211 434.526H242.061H242.031Z" fill="#FDAD6A"/>
<path d="M329.412 324.123C329.912 324.576 335.362 329.763 342.252 326.69C349.152 323.617 357.452 318.516 366.642 314.031C375.832 309.545 376.642 309.168 370.972 305.804C365.312 302.44 356.262 306.515 350.132 308.715C344.002 310.904 338.212 312.769 338.212 312.769L329.402 324.134L329.412 324.123Z" fill="#FDAD6A"/>
<path d="M320.5 328.663C326.7 322.937 333.42 302.957 338.9 265.887" stroke="#E97F3F" stroke-width="0.75" stroke-linecap="round" stroke-linejoin="round"/>
<path d="M291.711 325.654C295.981 325.212 298.831 324.317 300.951 322.398C304.751 318.98 307.421 267.72 307.421 267.72" stroke="#E97F3F" stroke-width="0.75" stroke-linecap="round" stroke-linejoin="round"/>
<path d="M330.672 326.905C334.642 325.406 338.332 319.831 340.322 315.831C342.312 311.831 357.002 271.073 358.362 265.962" stroke="#E97F3F" stroke-width="0.75" stroke-linecap="round" stroke-linejoin="round"/>
<path d="M47 203.29H42.5V197.821H47H47.5V197.321V192.43H52.5V197.321V197.821H53H57.5V203.29H53H52.5V203.79V208.682H47.5V203.79V203.29H47ZM44 202.134H48.5V207.025V207.525H49H51H51.5V207.025V202.134H56H56.5V201.634V199.477V198.977H56H51.5V194.086V193.586H51H49H48.5V194.086V198.977H44H43.5V199.477V201.634V202.134H44Z" fill="black" stroke="#BFBFBF"/>
<path d="M626.375 409.91H622.5V405.25H626.375H626.875V404.75V400.532H631.125V404.75V405.25H631.625H635.5V409.91H631.625H631.125V410.41V414.628H626.875V410.41V409.91H626.375ZM623.75 409.023H627.625V413.241V413.741H628.125H629.875H630.375V413.241V409.023H634.25H634.75V408.523V406.637V406.137H634.25H630.375V401.919V401.419H629.875H628.125H627.625V401.919V406.137H623.75H623.25V406.637V408.523V409.023H623.75Z" fill="black" stroke="#BFBFBF"/>
<path d="M483.512 46.181V46.681H484.012H485.012C485.132 46.681 485.255 46.732 485.352 46.8368C485.451 46.9429 485.512 47.0942 485.512 47.2592C485.512 47.4242 485.451 47.5756 485.352 47.6817C485.255 47.7865 485.132 47.8375 485.012 47.8375H484.012H483.512V48.3375V49.4157C483.512 49.5808 483.451 49.7321 483.352 49.8382C483.255 49.943 483.132 49.994 483.012 49.994C482.892 49.994 482.769 49.943 482.671 49.8382C482.573 49.7321 482.512 49.5808 482.512 49.4157V48.3375V47.8375H482.012H481.012C480.892 47.8375 480.769 47.7865 480.671 47.6817C480.573 47.5756 480.512 47.4242 480.512 47.2592C480.512 47.0942 480.573 46.9429 480.671 46.8368C480.769 46.732 480.892 46.681 481.012 46.681H482.012H482.512V46.181V45.1027C482.512 44.9377 482.573 44.7863 482.671 44.6803C482.769 44.5755 482.892 44.5245 483.012 44.5245C483.132 44.5245 483.255 44.5755 483.352 44.6803C483.451 44.7863 483.512 44.9377 483.512 45.1027V46.181ZM482.699 39.4653L483.011 39.7153L483.323 39.4665C484.434 38.5822 485.796 38.1594 487.162 38.2659C488.528 38.3724 489.821 39.0018 490.805 40.0513C491.34 40.6364 491.765 41.3317 492.053 42.0982C492.342 42.8657 492.487 43.6881 492.48 44.5181C492.473 45.348 492.314 46.1674 492.013 46.929C491.712 47.6905 491.275 48.378 490.729 48.9529L490.729 48.9529L490.724 48.9587L484.726 55.4803C484.725 55.4806 484.725 55.4808 484.725 55.4811C484.253 55.9891 483.622 56.2666 482.972 56.2666C482.322 56.2666 481.691 55.9891 481.219 55.4811C481.219 55.4808 481.219 55.4806 481.218 55.4803L475.22 48.9587L475.22 48.9586L475.217 48.9559C474.178 47.8426 473.562 46.339 473.504 44.746C473.447 43.153 473.951 41.6007 474.909 40.4014C475.865 39.2031 477.2 38.4487 478.639 38.2768C480.078 38.105 481.528 38.5263 482.699 39.4653ZM489.262 49.0297V49.0658L490.131 48.114C491.009 47.1529 491.495 45.8655 491.495 44.5313C491.495 43.197 491.009 41.9096 490.131 40.9485L490.131 40.9485L490.126 40.9434C489.237 39.9965 488.029 39.4579 486.762 39.4579C485.495 39.4579 484.287 39.9965 483.398 40.9434L483.398 40.9434L483.394 40.9472C483.346 40.9999 483.29 41.0394 483.232 41.0656C483.173 41.0918 483.113 41.1047 483.052 41.1047C482.991 41.1047 482.931 41.0918 482.872 41.0656C482.814 41.0394 482.758 40.9999 482.71 40.9472L482.71 40.9472L482.706 40.9434C481.817 39.9965 480.609 39.4579 479.342 39.4579C478.075 39.4579 476.867 39.9965 475.978 40.9434L475.978 40.9433L475.972 40.9497C475.101 41.9097 474.619 43.192 474.619 44.5205C474.619 45.849 475.101 47.1312 475.972 48.0912L475.972 48.0912L475.975 48.0952L481.974 54.5633C481.974 54.5636 481.975 54.5639 481.975 54.5642C482.112 54.7132 482.278 54.8338 482.463 54.9169C482.648 55.0002 482.848 55.0437 483.052 55.0437C483.255 55.0437 483.456 55.0002 483.641 54.9169C483.826 54.8338 483.992 54.7132 484.129 54.5642C484.129 54.5639 484.13 54.5636 484.13 54.5633L489.262 49.0297Z" fill="black" stroke="#BFBFBF"/>
<path d="M124.86 398.44L124.45 398.514V398.931V399.466C124.45 400.681 124.897 401.852 125.703 402.722C126.511 403.593 127.615 404.09 128.775 404.09C129.934 404.09 131.038 403.593 131.846 402.722C132.652 401.852 133.099 400.681 133.099 399.466V397.935V397.591L132.777 397.468C132.327 397.296 131.939 396.955 131.688 396.495C131.438 396.034 131.344 395.488 131.429 394.955C131.514 394.423 131.769 393.947 132.141 393.609C132.513 393.271 132.976 393.091 133.449 393.091C133.922 393.091 134.386 393.271 134.757 393.609C135.129 393.947 135.385 394.423 135.469 394.955C135.554 395.488 135.461 396.034 135.21 396.495C134.96 396.955 134.571 397.296 134.121 397.468L133.799 397.591V397.935V399.466C133.799 400.925 133.261 402.317 132.314 403.338C131.369 404.358 130.094 404.923 128.775 404.923C127.455 404.923 126.18 404.358 125.235 403.338C124.288 402.317 123.75 400.925 123.75 399.466V398.931V398.514L123.34 398.44C122.277 398.246 121.305 397.651 120.598 396.75C119.892 395.848 119.5 394.7 119.5 393.508C119.5 393.508 119.5 393.508 119.5 393.508V388.926C119.5 388.561 119.635 388.217 119.865 387.97C120.093 387.723 120.394 387.593 120.7 387.593H121.55C121.63 387.593 121.715 387.627 121.784 387.701C121.854 387.777 121.9 387.887 121.9 388.009C121.9 388.131 121.854 388.242 121.784 388.317C121.715 388.392 121.63 388.426 121.55 388.426H120.7H120.2V388.926V393.508C120.2 394.602 120.602 395.657 121.329 396.441C122.057 397.226 123.053 397.674 124.1 397.674C125.147 397.674 126.142 397.226 126.87 396.441C127.597 395.657 128 394.602 128 393.508V388.926V388.426H127.5H126.65C126.569 388.426 126.484 388.392 126.415 388.317C126.345 388.242 126.3 388.131 126.3 388.009C126.3 387.887 126.345 387.777 126.415 387.701C126.484 387.627 126.569 387.593 126.65 387.593H127.5C127.805 387.593 128.107 387.723 128.335 387.97C128.565 388.217 128.699 388.561 128.699 388.926V393.508C128.699 393.508 128.699 393.508 128.699 393.508C128.699 394.7 128.308 395.848 127.601 396.75C126.895 397.651 125.922 398.246 124.86 398.44ZM133.449 396.758C133.82 396.758 134.167 396.599 134.417 396.329C134.665 396.061 134.799 395.705 134.799 395.341C134.799 394.977 134.665 394.621 134.417 394.353C134.167 394.084 133.82 393.925 133.449 393.925C133.079 393.925 132.731 394.084 132.482 394.353C132.233 394.621 132.099 394.977 132.099 395.341C132.099 395.705 132.233 396.061 132.482 396.329C132.731 396.599 133.079 396.758 133.449 396.758Z" fill="black" stroke="#BFBFBF"/>
<path d="M694.21 192.112L693.8 192.186V192.603V193.169C693.8 194.448 694.271 195.682 695.119 196.597C695.969 197.513 697.13 198.036 698.349 198.036C699.569 198.036 700.73 197.513 701.58 196.597C702.428 195.682 702.899 194.448 702.899 193.169V191.549V191.204L702.577 191.081C702.094 190.897 701.677 190.531 701.409 190.038C701.14 189.544 701.04 188.959 701.131 188.389C701.222 187.819 701.495 187.309 701.895 186.946C702.293 186.584 702.791 186.39 703.299 186.39C703.807 186.39 704.305 186.584 704.704 186.946C705.103 187.309 705.377 187.819 705.467 188.389C705.558 188.959 705.458 189.544 705.189 190.038C704.921 190.531 704.505 190.897 704.021 191.081L703.699 191.204V191.549V193.169C703.699 194.721 703.127 196.203 702.119 197.289C701.113 198.375 699.756 198.977 698.349 198.977C696.943 198.977 695.586 198.375 694.58 197.289C693.572 196.203 693 194.721 693 193.169V192.603V192.186L692.59 192.112C691.457 191.905 690.421 191.271 689.669 190.312C688.917 189.351 688.5 188.129 688.5 186.861C688.5 186.861 688.5 186.861 688.5 186.861V182.009C688.5 181.615 688.645 181.245 688.894 180.977C689.141 180.71 689.468 180.568 689.8 180.568H690.7C690.793 180.568 690.891 180.608 690.97 180.693C691.049 180.778 691.1 180.902 691.1 181.039C691.1 181.175 691.049 181.299 690.97 181.385C690.891 181.47 690.793 181.509 690.7 181.509H689.8H689.3V182.009V186.861C689.3 188.012 689.723 189.122 690.488 189.946C691.253 190.772 692.3 191.243 693.4 191.243C694.5 191.243 695.546 190.772 696.312 189.946C697.076 189.122 697.5 188.012 697.5 186.861V182.009V181.509H697H696.1C696.006 181.509 695.908 181.47 695.83 181.385C695.75 181.299 695.7 181.175 695.7 181.039C695.7 180.902 695.75 180.778 695.83 180.693C695.908 180.608 696.006 180.568 696.1 180.568H697C697.332 180.568 697.658 180.71 697.906 180.977L698.272 180.637L697.906 180.977C698.154 181.245 698.299 181.615 698.299 182.009V186.861C698.299 186.861 698.299 186.861 698.299 186.861C698.299 188.129 697.883 189.351 697.13 190.312C696.378 191.271 695.342 191.905 694.21 192.112ZM703.299 190.273C703.683 190.273 704.043 190.108 704.302 189.828C704.56 189.55 704.699 189.181 704.699 188.802C704.699 188.424 704.56 188.054 704.302 187.776C704.043 187.497 703.683 187.332 703.299 187.332C702.915 187.332 702.555 187.497 702.296 187.776C702.038 188.054 701.899 188.424 701.899 188.802C701.899 189.181 702.038 189.55 702.296 189.828C702.555 190.108 702.915 190.273 703.299 190.273Z" fill="black" stroke="#BFBFBF"/>
<path d="M42.0801 327.586C42.5901 324.933 45.6201 322.939 48.5001 326.464C52.6101 321.386 57.0001 327.683 54.0201 330.928L48.5001 336.417L45.2701 333.182" stroke="#BFBFBF" stroke-width="1.5" stroke-linecap="round" stroke-linejoin="round"/>
<path d="M42 330.487H44.5L46 328.33L48 332.104L49.5 329.947H51" stroke="#BFBFBF" stroke-width="1.5" stroke-linecap="round" stroke-linejoin="round"/>
<path d="M426.75 320.737H423.5V317.256V316.756H423H416.75H416.25V317.256V322.088L416.009 322.728H416V316.429H423.679L423.72 316.468L427.451 320.429L427.5 320.487V332.681H416V327.968L416.25 328.234V331.854V332.354H416.75H426.75H427.25V331.854V321.237V320.737H426.75ZM423.75 318.408V319.91V320.41H424.25H425.852H427.01L426.216 319.567L424.614 317.867L424.251 318.209H424.25H423.75V318.21V318.408ZM423.169 325.382H422.306L422.265 325.295L421.761 324.229L421.345 325.333L420.503 327.567L419.108 324.111L418.628 322.923L418.177 324.122L417.417 326.137L416.856 325.539L416.708 325.382H416.491H413.5V325.055H416.793L417.331 325.626L417.613 324.877L418.621 322.205L420.016 325.662L420.496 326.851L420.948 325.651L421.737 323.556L422.308 324.768L422.443 325.055H422.761H423.169H423.466L423.608 324.794C423.695 324.634 423.825 324.515 423.974 324.45C424.122 324.385 424.285 324.374 424.438 324.417C424.592 324.461 424.734 324.559 424.838 324.703C424.942 324.848 425.001 325.029 425.001 325.218C425.001 325.408 424.942 325.589 424.838 325.733C424.734 325.877 424.592 325.975 424.438 326.019C424.285 326.063 424.122 326.052 423.974 325.987C423.825 325.921 423.695 325.803 423.608 325.643L423.466 325.382H423.169Z" fill="black" stroke="#BFBFBF"/>
<path d="M84.8333 49.7637H81.8333V46.5312V46.0312H81.3333H75.5H75V46.5312V51.0562L74.8333 51.4998V45.7871H81.9527L81.9806 45.8138L85.4622 49.5266L85.5 49.5715V60.9609H74.8333V56.6569L75 56.835V60.2168V60.7168H75.5H84.8333H85.3333V60.2168V50.2637V49.7637H84.8333ZM82 47.6236V49.0195V49.5195H82.5H83.9951H85.1497L84.3597 48.6774L82.8647 47.0837L82.5007 47.4252H82.5H82V47.4258V47.6236ZM79.4495 54.4124L80.1584 52.5224L80.6572 53.5863L80.7921 53.874H81.1099H81.4908H81.7887L81.9305 53.6121C82.0085 53.4681 82.1251 53.3622 82.2568 53.304C82.3877 53.2462 82.5308 53.2365 82.6658 53.2751C82.8014 53.3138 82.9276 53.4011 83.0209 53.5307C83.1146 53.6609 83.1679 53.8244 83.1679 53.9961C83.1679 54.1678 83.1146 54.3313 83.0209 54.4614C82.9276 54.5911 82.8014 54.6783 82.6658 54.7171C82.5308 54.7557 82.3877 54.746 82.2568 54.6882C82.1251 54.63 82.0085 54.524 81.9305 54.3801L81.7887 54.1182H81.4908H80.7074L80.678 54.0557L80.1735 52.9836L79.7574 54.093L79.002 56.1069L77.732 52.9468L77.2521 51.7527L76.8 52.9576L76.1099 54.7963L75.6236 54.2765L75.4754 54.1182H75.2585H72.5V53.874H75.5249L76.0546 54.4388L76.3373 53.6861L77.2476 51.2626L78.5174 54.4232L78.9973 55.6179L79.4495 54.4124Z" fill="black" stroke="#BFBFBF"/>
<path d="M209.998 51.8987L209.683 52.2386L209.998 52.5785L212.826 55.6289L213.193 56.0243L213.559 55.629L216.438 52.5247C216.662 52.2831 216.838 52.0017 216.959 51.6973C216.835 52.0362 216.648 52.3466 216.41 52.6085L210.755 58.7067C210.755 58.7067 210.755 58.7067 210.755 58.7067C210.283 59.216 209.651 59.4942 209 59.4942C208.35 59.4942 207.718 59.216 207.245 58.7067C206.772 58.1962 206.5 57.4962 206.5 56.7592C206.5 56.0222 206.772 55.3222 207.245 54.8117L212.901 48.7136C213.374 48.2124 214.003 47.9405 214.65 47.9434C215.297 47.9463 215.925 48.2245 216.394 48.731C216.491 48.8357 216.58 48.9483 216.66 49.0676C216.592 48.972 216.518 48.8806 216.438 48.7943C215.973 48.2924 215.333 48.0026 214.657 48.0026C213.981 48.0026 213.342 48.2924 212.876 48.7943L212.876 48.7944L209.998 51.8987ZM217.758 56.3141L217.169 56.4208C216.343 56.5705 215.601 57.0294 215.071 57.7051C214.689 58.1924 214.433 58.7708 214.321 59.3834C214.453 58.6307 214.792 57.9357 215.296 57.3925C215.956 56.6811 216.842 56.2893 217.758 56.2893C218.673 56.2893 219.56 56.6811 220.22 57.3925C220.723 57.9357 221.062 58.6306 221.195 59.3833C221.082 58.7708 220.827 58.1923 220.444 57.7051C219.914 57.0294 219.173 56.5705 218.347 56.4208L217.758 56.3141ZM215.296 62.8121C214.798 62.2754 214.461 61.5905 214.325 60.8481C214.44 61.4511 214.694 62.0202 215.071 62.5006C215.601 63.1763 216.343 63.6352 217.169 63.7848L217.758 63.8916L218.347 63.7848C219.173 63.6352 219.914 63.1763 220.444 62.5006C220.821 62.0202 221.075 61.4512 221.19 60.8482C221.054 61.5905 220.717 62.2754 220.22 62.8121C219.56 63.5235 218.673 63.9153 217.758 63.9153C216.842 63.9153 215.956 63.5235 215.296 62.8121Z" fill="#BFBFBF" stroke="#BFBFBF"/>
<path d="M518.896 361.273L518.581 361.613L518.896 361.952L522.306 365.634L522.673 366.03L523.039 365.634L526.511 361.887C527.052 361.303 527.351 360.518 527.351 359.706C527.351 358.895 527.052 358.11 526.511 357.526C525.968 356.94 525.224 356.603 524.439 356.603C523.653 356.603 522.909 356.94 522.366 357.526L522.366 357.526L518.896 361.273ZM528.074 367.255V366.656L527.485 366.763C526.515 366.939 525.643 367.479 525.018 368.275C524.395 369.071 524.056 370.074 524.056 371.105C524.056 372.137 524.395 373.14 525.018 373.936C525.643 374.732 526.515 375.272 527.485 375.448L528.074 375.555V374.956V367.255ZM528.28 374.956V375.555L528.869 375.448C529.839 375.272 530.711 374.732 531.335 373.936C531.959 373.14 532.298 372.137 532.298 371.105C532.298 370.074 531.959 369.071 531.335 368.275C530.711 367.479 529.839 366.939 528.869 366.763L528.28 366.656V367.255V374.956ZM527.534 359.715C527.538 360.624 527.208 361.492 526.627 362.129L519.809 369.491C519.221 370.126 518.432 370.474 517.618 370.474C516.804 370.474 516.014 370.126 515.426 369.491C514.837 368.855 514.5 367.984 514.5 367.069C514.5 366.154 514.837 365.284 515.426 364.648L522.246 357.287C522.835 356.661 523.621 356.321 524.43 356.324C525.24 356.328 526.023 356.676 526.608 357.308C527.194 357.941 527.531 358.805 527.534 359.715ZM528.177 366.399C529.311 366.399 530.406 366.884 531.221 367.763C532.036 368.643 532.5 369.845 532.5 371.105C532.5 372.365 532.036 373.566 531.221 374.446C530.406 375.325 529.311 375.811 528.177 375.811C527.043 375.811 525.948 375.325 525.133 374.446C524.318 373.566 523.854 372.365 523.854 371.105C523.854 369.845 524.318 368.643 525.133 367.763C525.948 366.884 527.043 366.399 528.177 366.399Z" fill="#BFBFBF" stroke="#BFBFBF"/>
<path d="M549.5 121.843C547.4 121.843 546 124.107 546 126.371C546 127.964 546.7 130.145 547.4 130.9C548.1 131.655 548.8 136.938 550.2 136.938C553.378 136.938 551.6 131.655 553 131.655C554.4 131.655 552.622 136.938 555.8 136.938C557.2 136.938 557.9 131.655 558.6 130.9C559.3 130.145 560 127.964 560 126.371C560 124.107 558.6 121.843 556.5 121.843C554.4 121.843 554.4 122.598 553 122.598C551.6 122.598 551.6 121.843 549.5 121.843ZM549.5 123.352C550.9 123.352 551.6 124.107 553 124.107C554.4 124.107 555.1 123.352 556.5 123.352C557.669 123.352 558.6 124.862 558.6 126.371C558.6 127.692 557.998 129.474 557.333 130.191C556.731 130.84 555.842 135.383 555.45 135.383C555.303 135.383 555.1 134.583 555.1 133.61C555.1 132.07 554.701 130.145 553 130.145C551.299 130.145 550.9 132.07 550.9 133.61C550.9 134.583 550.697 135.383 550.55 135.383C550.158 135.383 549.269 130.84 548.667 130.191C548.002 129.474 547.4 127.692 547.4 126.371C547.4 124.862 548.331 123.352 549.5 123.352Z" fill="#BFBFBF"/>
<path d="M294.4 362.617V360.353C297.592 359.915 300 358.013 300 355.824H286C286 358.013 288.408 359.915 291.6 360.353V362.617C289.024 363.168 286 365.342 286 370.92H290.2V369.41H287.491C288.142 364.255 292.146 363.976 293 363.976C293.854 363.976 297.858 364.255 298.509 369.41H295.8V370.92H300C300 365.342 296.976 363.168 294.4 362.617ZM297.809 357.334C296.85 358.232 295.1 358.934 293 358.934C290.9 358.934 289.15 358.232 288.191 357.334H297.809ZM293 370.92C292.23 370.92 291.6 370.24 291.6 369.41C291.6 368.995 291.754 368.618 292.013 368.346C292.573 367.742 295.8 366.391 295.8 366.391C295.8 366.391 294.547 369.871 293.987 370.474C293.735 370.754 293.385 370.92 293 370.92Z" fill="#BFBFBF"/>
<path d="M614.07 57.6108L612.65 56.0905L614.07 54.5594L615.48 56.0905L616.89 54.5594L615.48 53.039L616.89 51.5187L618.31 53.039L619.72 51.5187L616.89 48.4672L609.82 56.0905L612.65 59.142L614.07 57.6108ZM606 61.7298L609.12 58.3764L607 56.0905L616.89 45.4158L619.02 47.7125L620.42 46.1813L619.02 44.6502L620.42 43.1299L624.67 47.7125L623.26 49.222L621.84 47.7125L620.42 49.222L622.55 51.5187L612.65 62.1826L610.53 59.8967L606 64.792V61.7298Z" fill="#BFBFBF"/>
<path d="M276.238 124.773L274.261 122.654L276.238 120.52L278.202 122.654L280.166 120.52L278.202 118.401L280.166 116.283L282.143 118.401L284.107 116.283L280.166 112.03L270.32 122.654L274.261 126.907L276.238 124.773ZM265 130.514L269.345 125.84L266.393 122.654L280.166 107.777L283.132 110.978L285.081 108.844L283.132 106.71L285.081 104.591L291 110.978L289.036 113.082L287.059 110.978L285.081 113.082L288.048 116.283L274.261 131.145L271.309 127.959L265 134.782V130.514Z" fill="#BFBFBF"/>
</g>
<defs>
<clipPath id="clip0_531_13876">
<rect width="605.14" height="393.843" fill="white" transform="translate(103 20.4873)"/>
</clipPath>
<clipPath id="clip1_531_13876">
<rect width="698.07" height="434.526" fill="white" transform="translate(19)"/>
</clipPath>
</defs>
</svg>
