<svg xmlns="http://www.w3.org/2000/svg" width="30" height="18" viewBox="0 0 30 18" fill="none">
<path d="M8.87685 0C9.71346 0 10.4872 0.0642855 11.1942 0.254571C11.9025 0.381856 12.4825 0.636427 12.997 0.953998C13.5129 1.27285 13.8991 1.71771 14.1557 2.28985C14.4136 2.86199 14.5433 3.56271 14.5433 4.32513C14.5433 5.21613 14.3495 5.97856 13.8991 6.5507C13.5129 7.12413 12.8687 7.63199 12.0963 8.01384C13.1908 8.3327 14.0274 8.90484 14.5433 9.66855C15.0578 10.431 15.3799 11.385 15.3799 12.4663C15.3799 13.3573 15.1861 14.1197 14.864 14.7561C14.5433 15.3925 14.0274 15.9647 13.4474 16.3465C12.8174 16.7558 12.1209 17.0567 11.388 17.2363C10.6155 17.4278 9.84307 17.5551 9.07062 17.5551H0.441406V0H8.87685ZM8.36101 7.12284C9.06931 7.12284 9.6493 6.93256 10.0997 6.61499C10.5501 6.29742 10.7438 5.72399 10.7438 5.02456C10.7438 4.64271 10.6784 4.26213 10.5501 4.00756C10.4218 3.75299 10.228 3.56142 9.97138 3.37114C9.71346 3.24385 9.45554 3.11657 9.13346 3.05357C8.81139 2.98928 8.49063 2.98928 8.10309 2.98928H4.36913V7.12413H8.36232L8.36101 7.12284ZM8.55478 14.6288C8.941 14.6288 9.32723 14.5645 9.6493 14.5015C9.97138 14.4373 10.2935 14.3113 10.5501 14.1197C10.8124 13.9336 11.0319 13.6952 11.1942 13.4203C11.3225 13.1027 11.4521 12.7208 11.4521 12.276C11.4521 11.385 11.1942 10.7486 10.6797 10.3037C10.1638 9.92184 9.45554 9.73155 8.61893 9.73155H4.36913V14.6301L8.55478 14.6288ZM20.9821 14.5645C21.4966 15.0737 22.2691 15.3283 23.2995 15.3283C24.0078 15.3283 24.6519 15.138 25.1664 14.8204C25.6823 14.4385 26.0044 14.0567 26.1327 13.6761H29.2879C28.7721 15.201 27.9996 16.2823 26.9706 16.983C25.9389 17.6181 24.7161 18 23.2353 18C22.2879 18.0028 21.3484 17.8301 20.4663 17.4908C19.6724 17.1985 18.9645 16.7179 18.4055 16.092C17.8076 15.5064 17.3656 14.7854 17.1185 13.9924C16.7965 13.1657 16.6668 12.276 16.6668 11.2577C16.6668 10.3037 16.7965 9.41398 17.1185 8.58598C17.4287 7.78931 17.8874 7.05638 18.471 6.4247C19.059 5.83179 19.7583 5.35632 20.5304 5.02456C21.3902 4.68521 22.3087 4.51233 23.2353 4.51542C24.3298 4.51542 25.2961 4.70699 26.1327 5.15185C26.9706 5.5967 27.6134 6.10584 28.1279 6.86956C28.6438 7.56898 29.0313 8.3957 29.2879 9.2867C29.4162 10.1764 29.4804 11.0674 29.4162 12.0844H20.08C20.08 13.1027 20.4663 14.0567 20.9821 14.5658V14.5645ZM25.0381 7.88656C24.5878 7.4417 23.8795 7.18713 23.0415 7.18713C22.4629 7.18713 22.0112 7.3157 21.6249 7.50599C21.2387 7.69627 20.9821 7.95084 20.7242 8.20541C20.4868 8.45119 20.3295 8.761 20.2725 9.09513C20.2083 9.41398 20.1442 9.66855 20.1442 9.92184H25.9389C25.8106 8.96784 25.4885 8.3327 25.0381 7.88656ZM19.3717 1.20857H26.583V2.92628H19.373V1.20857H19.3717Z" fill="white"/>
</svg>