<svg xmlns="http://www.w3.org/2000/svg" width="34" height="65" viewBox="0 0 34 65" fill="none">
<path d="M28.1893 32.5L0.705894 4.5897C0.479618 4.36477 0.300732 4.09774 0.179581 3.80405C0.0584297 3.51036 -0.00258255 3.19584 8.39233e-05 2.87869C0.0027504 2.56155 0.0690384 2.24807 0.19511 1.95641C0.321182 1.66475 0.504536 1.40069 0.734562 1.17951C0.964588 0.958333 1.23671 0.784432 1.5352 0.667869C1.83369 0.551307 2.15261 0.494397 2.4735 0.500435C2.79438 0.506472 3.11088 0.575336 3.40466 0.703041C3.69843 0.830746 3.96367 1.01476 4.185 1.24443L33.3125 30.8274C33.7533 31.2752 34 31.8752 34 32.5C34 33.1247 33.7533 33.7248 33.3125 34.1726L4.185 63.7556C3.96367 63.9852 3.69843 64.1693 3.40466 64.297C3.11088 64.4247 2.79438 64.4935 2.4735 64.4996C2.15261 64.5056 1.83369 64.4487 1.5352 64.3321C1.23671 64.2156 0.964588 64.0417 0.734562 63.8205C0.504536 63.5993 0.321182 63.3353 0.19511 63.0436C0.0690384 62.7519 0.0027504 62.4385 8.39233e-05 62.1213C-0.00258255 61.8042 0.0584297 61.4896 0.179581 61.196C0.300732 60.9023 0.479618 60.6352 0.705894 60.4103L28.1893 32.5Z" fill="white"/>
</svg>