<svg xmlns="http://www.w3.org/2000/svg" width="34" height="65" viewBox="0 0 34 65" fill="none">
<path d="M5.81073 32.5L33.2941 4.5897C33.5204 4.36477 33.6993 4.09774 33.8204 3.80405C33.9416 3.51036 34.0026 3.19584 33.9999 2.87869C33.9972 2.56155 33.931 2.24807 33.8049 1.95641C33.6788 1.66475 33.4955 1.40069 33.2654 1.17951C33.0354 0.958333 32.7633 0.784432 32.4648 0.667869C32.1663 0.551307 31.8474 0.494397 31.5265 0.500435C31.2056 0.506472 30.8891 0.575336 30.5953 0.703041C30.3016 0.830746 30.0363 1.01476 29.815 1.24443L0.687537 30.8274C0.24667 31.2752 0 31.8752 0 32.5C0 33.1247 0.24667 33.7248 0.687537 34.1726L29.815 63.7556C30.0363 63.9852 30.3016 64.1693 30.5953 64.297C30.8891 64.4247 31.2056 64.4935 31.5265 64.4996C31.8474 64.5056 32.1663 64.4487 32.4648 64.3321C32.7633 64.2156 33.0354 64.0417 33.2654 63.8205C33.4955 63.5993 33.6788 63.3353 33.8049 63.0436C33.931 62.7519 33.9972 62.4385 33.9999 62.1213C34.0026 61.8042 33.9416 61.4896 33.8204 61.196C33.6993 60.9023 33.5204 60.6352 33.2941 60.4103L5.81073 32.5Z" fill="white"/>
</svg>