<svg xmlns="http://www.w3.org/2000/svg" width="33" height="32" viewBox="0 0 33 32" fill="none">
<path d="M29.4269 0.748535C30.3699 0.748535 31.2742 1.10611 31.941 1.7426C32.6078 2.37908 32.9824 3.24235 32.9824 4.14247V27.9C32.9824 28.8002 32.6078 29.6634 31.941 30.2999C31.2742 30.9364 30.3699 31.294 29.4269 31.294H4.53798C3.59499 31.294 2.69062 30.9364 2.02382 30.2999C1.35702 29.6634 0.982422 28.8002 0.982422 27.9V4.14247C0.982422 3.24235 1.35702 2.37908 2.02382 1.7426C2.69062 1.10611 3.59499 0.748535 4.53798 0.748535H29.4269ZM28.538 27.0516V18.0576C28.538 16.5904 27.9274 15.1833 26.8405 14.1458C25.7536 13.1084 24.2795 12.5255 22.7424 12.5255C21.2313 12.5255 19.4713 13.4079 18.618 14.7316V12.8479H13.658V27.0516H18.618V18.6855C18.618 17.3788 19.7202 16.3097 21.0891 16.3097C21.7492 16.3097 22.3822 16.56 22.849 17.0056C23.3158 17.4511 23.578 18.0554 23.578 18.6855V27.0516H28.538ZM7.8802 10.1837C8.67231 10.1837 9.43198 9.88332 9.99209 9.34867C10.5522 8.81403 10.8669 8.08889 10.8669 7.33278C10.8669 5.7546 9.53353 4.4649 7.8802 4.4649C7.08337 4.4649 6.31918 4.76705 5.75574 5.30488C5.19229 5.84271 4.87576 6.57217 4.87576 7.33278C4.87576 8.91096 6.22687 10.1837 7.8802 10.1837ZM10.3513 27.0516V12.8479H5.42687V27.0516H10.3513Z" fill="white"/>
</svg>