<svg xmlns="http://www.w3.org/2000/svg" width="25" height="25" viewBox="0 0 25 25" fill="none">
<g clip-path="url(#clip0_531_14238)">
<path d="M9.98242 19.0212C4.98242 20.5212 4.98242 16.5212 2.98242 16.0212M16.9824 22.0212V18.1512C17.0199 17.6743 16.9555 17.195 16.7934 16.745C16.6314 16.295 16.3754 15.8846 16.0424 15.5412C19.1824 15.1912 22.4824 14.0012 22.4824 8.54118C22.4822 7.14501 21.9451 5.80238 20.9824 4.79118C21.4383 3.56968 21.406 2.21953 20.8924 1.02118C20.8924 1.02118 19.7124 0.671178 16.9824 2.50118C14.6904 1.88 12.2744 1.88 9.98242 2.50118C7.25242 0.671178 6.07242 1.02118 6.07242 1.02118C5.5588 2.21953 5.52657 3.56968 5.98242 4.79118C5.01255 5.80988 4.47494 7.16464 4.48242 8.57118C4.48242 13.9912 7.78242 15.1812 10.9224 15.5712C10.5934 15.9111 10.3397 16.3166 10.1777 16.7611C10.0158 17.2056 9.94923 17.6792 9.98242 18.1512V22.0212" stroke="white" stroke-width="2" stroke-linecap="round" stroke-linejoin="round"/>
</g>
<defs>
<clipPath id="clip0_531_14238">
<rect width="24" height="24" fill="white" transform="translate(0.982422 0.0212402)"/>
</clipPath>
</defs>
</svg>